<svg width="68" height="29" viewBox="0 0 68 29" fill="none" xmlns="http://www.w3.org/2000/svg">
<path d="M8.696 22.288C7.48 22.288 6.46667 22.096 5.656 21.712C4.84533 21.3067 4.10933 20.6773 3.448 19.824V28.816H0.6V6.384H3.448V8.624C4.10933 7.81333 4.89867 7.16267 5.816 6.672C6.73333 6.18133 7.69333 5.936 8.696 5.936C9.784 5.936 10.8187 6.14933 11.8 6.576C12.8027 6.98133 13.6667 7.568 14.392 8.336C15.1387 9.104 15.7147 9.98933 16.12 10.992C16.5467 11.9733 16.76 13.0187 16.76 14.128C16.76 15.2373 16.5467 16.2827 16.12 17.264C15.7147 18.2453 15.1387 19.12 14.392 19.888C13.6667 20.6347 12.8027 21.2213 11.8 21.648C10.8187 22.0747 9.784 22.288 8.696 22.288ZM8.696 8.848C7.992 8.848 7.32 8.98667 6.68 9.264C6.04 9.52 5.48533 9.89333 5.016 10.384C4.54667 10.8747 4.17333 11.4507 3.896 12.112C3.61867 12.752 3.48 13.424 3.48 14.128C3.48 14.832 3.61867 15.504 3.896 16.144C4.17333 16.784 4.54667 17.3493 5.016 17.84C5.48533 18.3307 6.04 18.7147 6.68 18.992C7.32 19.2693 7.992 19.408 8.696 19.408C9.4 19.408 10.072 19.2693 10.712 18.992C11.352 18.7147 11.9067 18.3307 12.376 17.84C12.8453 17.3493 13.208 16.784 13.464 16.144C13.7413 15.504 13.88 14.832 13.88 14.128C13.88 13.424 13.7413 12.752 13.464 12.112C13.208 11.4507 12.8453 10.8747 12.376 10.384C11.9067 9.89333 11.352 9.52 10.712 9.264C10.072 8.98667 9.4 8.848 8.696 8.848ZM27.4073 22.16C26.3193 22.16 25.2846 21.9467 24.3033 21.52C23.3219 21.0933 22.4579 20.5067 21.7113 19.76C20.9646 19.0133 20.3779 18.1493 19.9513 17.168C19.5246 16.1867 19.3113 15.152 19.3113 14.064C19.3113 12.9547 19.5246 11.8987 19.9513 10.896C20.3779 9.89333 20.9646 9.01867 21.7113 8.272C22.4579 7.52533 23.3219 6.94933 24.3033 6.544C25.2846 6.11733 26.3193 5.904 27.4073 5.904C28.5166 5.904 29.5726 6.11733 30.5753 6.544C31.5779 6.94933 32.4526 7.52533 33.1993 8.272C33.9459 9.01867 34.5219 9.89333 34.9272 10.896C35.3539 11.8987 35.5673 12.9547 35.5673 14.064C35.5673 15.152 35.3539 16.1867 34.9272 17.168C34.5219 18.1493 33.9459 19.0133 33.1993 19.76C32.4526 20.5067 31.5779 21.0933 30.5753 21.52C29.5726 21.9467 28.5166 22.16 27.4073 22.16ZM27.4073 8.752C25.9779 8.752 24.7513 9.264 23.7273 10.288C23.2366 10.7787 22.8526 11.3547 22.5753 12.016C22.2979 12.6773 22.1593 13.36 22.1593 14.064C22.1593 14.768 22.2979 15.44 22.5753 16.08C22.8526 16.72 23.2366 17.2853 23.7273 17.776C24.2179 18.2667 24.7726 18.6507 25.3913 18.928C26.0313 19.2053 26.7033 19.344 27.4073 19.344C28.1113 19.344 28.7939 19.2053 29.4553 18.928C30.1166 18.6507 30.6819 18.2667 31.1513 17.776C31.6206 17.2853 31.9939 16.72 32.2713 16.08C32.5486 15.44 32.6873 14.768 32.6873 14.064C32.6873 13.36 32.5486 12.6773 32.2713 12.016C31.9939 11.3547 31.6206 10.7787 31.1513 10.288C30.6819 9.79733 30.1166 9.424 29.4553 9.168C28.8153 8.89067 28.1326 8.752 27.4073 8.752ZM39.9158 3.696C39.5104 3.696 39.1584 3.55733 38.8598 3.28C38.5824 2.98133 38.4438 2.62933 38.4438 2.224C38.4438 1.81867 38.5824 1.47733 38.8598 1.2C39.1584 0.901332 39.5104 0.751999 39.9158 0.751999C40.3211 0.751999 40.6624 0.901332 40.9398 1.2C41.2384 1.47733 41.3878 1.81867 41.3878 2.224C41.3878 2.62933 41.2384 2.98133 40.9398 3.28C40.6624 3.55733 40.3211 3.696 39.9158 3.696ZM38.6038 22V6H41.2918V22H38.6038ZM54.488 22V12.4C54.488 11.44 54.136 10.608 53.432 9.904C52.7493 9.22133 51.9173 8.88 50.936 8.88C49.976 8.88 49.144 9.232 48.44 9.936C48.12 10.256 47.864 10.64 47.672 11.088C47.48 11.5147 47.384 11.952 47.384 12.4V22H44.6V6.384H47.384V7.696C47.7893 7.20533 48.3227 6.8 48.984 6.48C49.6453 6.16 50.296 6 50.936 6C51.7893 6 52.6 6.17067 53.368 6.512C54.1573 6.832 54.8507 7.29067 55.448 7.888C56.024 8.464 56.472 9.14667 56.792 9.936C57.1333 10.704 57.304 11.5253 57.304 12.4V22H54.488ZM64.9938 8.88V22H62.2738V8.88H59.8738V6H62.2738V0.719999H64.9938V6H67.3938V8.88H64.9938Z" fill="#306E9D"/>
</svg>
