<svg width="24" height="24" viewBox="0 0 24 24" fill="none" xmlns="http://www.w3.org/2000/svg">
<path d="M17.2941 10.4116L14.1177 13.5881M17.2941 13.5881L14.1177 10.4116L17.2941 13.5881Z" stroke="#00325A" stroke-width="1.05882" stroke-linecap="round"/>
<path d="M6.70587 13.5665V10.4329C6.70587 10.129 6.94305 9.8823 7.23528 9.8823H9.13375C9.20381 9.88205 9.2731 9.86762 9.33742 9.83987C9.40175 9.81212 9.45979 9.77162 9.50805 9.72083L11.0963 7.92718C11.4298 7.57989 12 7.82607 12 8.31683V15.6831C12 16.1775 11.4229 16.4216 11.0915 16.0674L9.50858 14.2838C9.46019 14.2316 9.40156 14.1899 9.33634 14.1613C9.27113 14.1327 9.20073 14.1178 9.12952 14.1176H7.23528C6.94305 14.1176 6.70587 13.8709 6.70587 13.5665Z" stroke="#00325A" stroke-width="1.05882" stroke-linecap="round" stroke-linejoin="round"/>
<circle cx="12" cy="12" r="12" fill="#C4C4C4" fill-opacity="0.5"/>
</svg>
