<?xml version="1.0" standalone="no"?>
<!DOCTYPE svg PUBLIC "-//W3C//DTD SVG 1.0//EN" "http://www.w3.org/TR/2001/REC-SVG-20010904/DTD/svg10.dtd">
<svg xmlns="http://www.w3.org/2000/svg" xmlns:xlink="http://www.w3.org/1999/xlink" id="body_1" width="44" height="44">

<g transform="matrix(1.8333334 0 0 1.8333334 0 0)">
    <path d="M17.2941 10.4116L14.1177 13.5881L17.2941 10.4116zM17.2941 13.5881L14.1177 10.4116L17.2941 13.5881z" stroke="#00325A" stroke-width="1.05882" stroke-linecap="square" fill="none" />
    <path d="M6.70587 13.5665L6.70587 10.4329C 6.70587 10.129 6.94305 9.8823 7.23528 9.8823L7.23528 9.8823L9.13375 9.8823C 9.20381 9.88205 9.2731 9.86762 9.33742 9.83987C 9.40175 9.81212 9.45979 9.77162 9.50805 9.72083L9.50805 9.72083L11.0963 7.92718C 11.4298 7.57989 12 7.82607 12 8.31683L12 8.31683L12 15.6831C 12 16.1775 11.4229 16.4216 11.0915 16.0674L11.0915 16.0674L9.50858 14.2838C 9.46019 14.2316 9.40156 14.1899 9.33634 14.1613C 9.27113 14.1327 9.20073 14.1178 9.12952 14.1176L9.12952 14.1176L7.23528 14.1176C 6.94305 14.1176 6.70587 13.8709 6.70587 13.5665z" stroke="#00325A" stroke-width="1.05882" stroke-linecap="square" fill="none" />
    <path d="M24 12C 24 15.313708 22.828426 18.142136 20.485281 20.485281C 18.142136 22.828426 15.313708 24 12 24C 8.686292 24 5.857865 22.828426 3.514719 20.485281C 1.171573 18.142136 0 15.313708 0 12C 0 8.686292 1.171573 5.857865 3.514719 3.514719C 5.857865 1.171573 8.686292 0 12 0C 15.313708 0 18.142136 1.171573 20.485281 3.514719C 22.828426 5.857865 24 8.686292 24 12C 24 12.139641 23.997564 12.279239 23.992691 12.418794" stroke="none" fill="#C4C4C4" fill-rule="nonzero" fill-opacity="0.49803922" />
</g>
</svg>